# xmcd
#
# Track frame offsets:
# 150
# 15953
# 31454
# 45954
# 61107
# 76375
# 92671
# 110312
# 125347
# 138008
# 150870
# 167791
# 189569
#
# Disc length: 2756 seconds
#
# Revision: 1
# Processed by: cddbd v1.5.2PL0 Copyright (c) Steve Scherf et al.
# Submitted via: CedeCatalogueitor 2.6.0.6 http://personales.ya.com/cdcatalogueitor
#
DISCID=8a0ac20d
DTITLE=The Ladybug Transistor - Can't Wait Another Day
DYEAR=1900
DGENRE=
TTITLE0=Three Days From Now
TTITLE1=I'm Not Mad Enough
TTITLE2=Here Comes The Rain
TTITLE3=This Ol Chase
TTITLE4=For No Tother 
TTITLE5=Always On The Telephone
TTITLE6=In-between So Blind
TTITLE7=Broken Links
TTITLE8=California Stopver
TTITLE9=Lord, Don't Pass Me By
TTITLE10=
TTITLE11=
TTITLE12=
EXTD=
EXTT0=
EXTT1=
EXTT2=
EXTT3=
EXTT4=
EXTT5=
EXTT6=
EXTT7=
EXTT8=
EXTT9=
EXTT10=
EXTT11=
EXTT12=
PLAYORDER=
